Simulation
nRows=28
nColumns=15
endheader
time  TH_x TH_y TH_z SC_y  SC_z  SC_x  AC_y  AC_z  AC_x  GH_y  GH_z  GH_yy  EL_x  PS_y
8.6175  0.000000  0.000000  0.000000  -35.781734217038725  2.033864958559904  -9.659971052954129  41.24846848632557  15.640989989679149  5.9463680638228595  116.09928963355425  4.821736814881113  -100.7478252469556  20.57909058381805  120.000000
8.67495  0.000000  0.000000  0.000000  -35.405251405284766  2.0737109951149266  -10.29606872483141  40.92439224438099  15.528504585667532  6.110908362103118  105.04804516491656  5.044299899327362  -89.94868709984286  20.51337565779998  120.000000
8.7324  0.000000  0.000000  0.000000  -35.00776684472697  2.0680696866164414  -11.023051778037697  40.726394550429774  15.429461144442795  6.416922406152221  93.50369416003993  5.7982968099828245  -78.55135819345712  20.622583914066404  120.000000
8.78985  0.000000  0.000000  0.000000  -34.633989866156234  2.014472420101728  -11.800973506863656  40.678249953472175  15.342170648109512  6.883684599026984  83.99978897408249  7.179270030995018  -69.13609993999737  20.888181278122335  120.000000
8.8473  0.000000  0.000000  0.000000  -34.323830539878244  1.939259092075067  -12.600335816154198  40.79188421954578  15.27692862827561  7.503804844686594  77.33615140841204  9.191893662364995  -62.58848251106933  21.24711149494197  120.000000
8.90475  0.000000  0.000000  0.000000  -34.10097894893263  1.8768871353581247  -13.404737908630592  41.06568242487182  15.246882670584721  8.249948171320987  72.9898744785119  11.794186480085562  -58.479127308933535  21.621904107340324  120.000000
8.9622  0.000000  0.000000  0.000000  -33.96740821699623  1.852587882978698  -14.202499089365638  41.48196534303834  15.253119120132165  9.095749438224454  70.17663230418944  14.924470875337471  -56.09184056343731  21.94910755725628  120.000000
9.01965  0.000000  0.000000  0.000000  -33.90471700313018  1.8758574611847154  -14.980037582634647  42.01763571771411  15.283634610686695  10.021511376632748  68.28619515346966  18.513462355557902  -54.83881373406733  22.19456603869689  120.000000
9.0771  0.000000  0.000000  0.000000  -33.88810759486334  1.9473227976971759  -15.719479506012926  42.656540679343095  15.323296907833516  11.006003930769426  66.92026764796971  22.493961162204346  -54.296830077889396  22.35040305797046  120.000000
9.13455  0.000000  0.000000  0.000000  -33.90270934428988  2.067242644307056  -16.395823596766114  43.3882971740702  15.36033815587592  12.023328787579143  65.8406225616671  26.802886493404536  -54.16142962413606  22.420974511449554  120.000000
9.192  0.000000  0.000000  0.000000  -33.95487694641908  2.2389923923318675  -16.974888698298795  44.20288762176337  15.386006150722116  13.044679598569578  64.9240668842032  31.381827088347503  -54.21353051373507  22.409963565821336  120.000000
9.24945  0.000000  0.000000  0.000000  -34.06277883161882  2.467404057728739  -17.41465430945833  45.09297456286602  15.395578665534208  14.037282515709984  64.13019124444676  36.17753771941978  -54.302366583384796  22.313917099424625  120.000000
9.3069  0.000000  0.000000  0.000000  -34.23842018770086  2.752636679801222  -17.66737133905405  46.048679590104996  15.387827446665252  14.968023891787473  63.46894131895615  41.133814914685935  -54.33124460107933  22.12134323455272  120.000000
9.36435  0.000000  0.000000  0.000000  -34.4814699531332  3.0881691468647636  -17.684644866402973  47.049182392111575  15.360136959535835  15.808122454135429  62.96995461112108  46.181734352023724  -54.24417538090683  21.820628242829084  120.000000
9.421800000000001  0.000000  0.000000  0.000000  -34.77584290824919  3.461117020828423  -17.428253743450217  48.06650371429364  15.308375685016166  16.5292967477323  62.6533659456815  51.24435773820194  -54.01420956485993  21.412013071659384  120.000000
9.47925  0.000000  0.000000  0.000000  -35.098712815153014  3.855247978641517  -16.881815063151613  49.07451817129626  15.226788964612906  17.10045535388155  62.511782511806146  56.2510367623125  -53.63757683773118  20.915679739250404  120.000000
9.5367  0.000000  0.000000  0.000000  -35.43493613651191  4.250331331615613  -16.058750885339215  50.05134234340458  15.103197396113345  17.49144439103853  62.511769715940126  61.137477382558856  -53.12782722760837  20.370905359631674  120.000000
9.59415  0.000000  0.000000  0.000000  -35.78096015774215  4.617945548929917  -15.003992131910762  50.973019011714975  14.916545220351045  17.681135170119546  62.605731733616835  65.83156828441366  -52.508634254192614  19.825385300836377  120.000000
9.6516  0.000000  0.000000  0.000000  -36.1373010933024  4.930375863431998  -13.785534026518514  51.8103281598873  14.64518100883949  17.663246598581942  62.74657754317521  70.2416887750143  -51.80775548941032  19.32442327521825  120.000000
9.70905  0.000000  0.000000  0.000000  -36.49333109066259  5.1721824824108085  -12.477366807503708  52.53218325440531  14.278983558481702  17.451803885655014  62.89700923854116  74.25293841120855  -51.05415589082347  18.90007217382074  120.000000
9.7665  0.000000  0.000000  0.000000  -36.82329411401929  5.342824301785537  -11.149594736649762  53.11405784192653  13.821087043578137  17.081266841746885  63.02704852742426  77.73248119249729  -50.28030562131557  18.57011543722757  120.000000
9.82395  0.000000  0.000000  0.000000  -37.09773227066936  5.4524924613908805  -9.867930063588105  53.547874939575856  13.283063047527598  16.598467330039927  63.11136505686093  80.54450518399749  -49.52438170808309  18.343239580890426  120.000000
9.8814  0.000000  0.000000  0.000000  -37.290727985100524  5.513188441471608  -8.695843017619069  53.84310338723392  12.681409767525421  16.056048393786895  63.12762560157034  82.56830678011791  -48.82984821664343  18.220903035180754  120.000000
9.93885  0.000000  0.000000  0.000000  -37.38580550025506  5.529918178645936  -7.695855337102126  54.01916212416962  12.036882774080418  15.507505024355455  63.05606566072214  83.71389163567235  -48.24182965786385  18.193918727480995  120.000000
9.9963  0.000000  0.000000  0.000000  -37.376255994477795  5.499366300076062  -6.927993539997429  54.09531915962531  11.374921075369539  15.003047173399283  62.88120721096011  83.93149831889265  -47.800917008098125  18.241361865820885  120.000000
10.05375  0.000000  0.000000  0.000000  -37.26512678141588  5.41562980325347  -6.446810352907895  54.08454516049529  10.728021050228504  14.584736963335  62.59781998392547  83.21630462105578  -47.5344167938387  18.334817038941072  120.000000
10.1112  0.000000  0.000000  0.000000  -37.06624611553076  5.277877652467479  -6.296107621945436  53.9889076405168  10.140850017954246  14.280619257070896  62.21472134002967  81.60893978466736  -47.444303066882235  18.44500387733877  120.000000
10.16865  0.000000  0.000000  0.000000  -36.803143767581986  5.092874911273075  -6.500827737319  53.79821921504225  9.674387170696695  14.100200524286429  61.754282015922996  79.19258232177015  -47.49668421150131  18.545581977585226  120.000000
